# xmcd
#
# Track frame offsets: 
#        150
#        12430
#        24900
#        37323
#        50318
#        61795
#        73635
#        78875
#        90805
#        103278
#        115818
#        131608
#        144310
#        157423
#        170148
#        183278
#        195628
#        207590
#        220715
#        235030
#        248070
#        261400
#        274198
#        285918
#        299765
#        311220
#        323125
#        334338
#
# Disc length: 4644 seconds
#
# Revision: 1
# Processed by: cddbd v1.5.2PL0 Copyright (c) Steve Scherf et al.
# Submitted via: ExactAudioCopy v1.3
#
DISCID=a812221c
DTITLE=Merle Travis - Guitar Rags And A Too Fast Past_CD3
DYEAR=1994
DGENRE=Country
TTITLE0=Sh\\unshines's Back In Town
TTITLE1=The Devil To Pay
TTITLE2=Steel Guitar Rag
TTITLE3=Lawdy What A Gal
TTITLE4=Sioux City Sue
TTITLE5=Muskrat
TTITLE6=Fat Gal (false start)
TTITLE7=Fat Gal
TTITLE8=I Like My Chicken Fryin' Size
TTITLE9=Merle's Boogie Woogie (alt)
TTITLE10=Merle's Boogie Woogie 
TTITLE11=Dapper Dan
TTITLE12=When My Baby Double Talks To Me
TTITLE13=I'm Pickin' Up The Pieces Of My Heart
TTITLE14=Information Please
TTITLE15=Any Old Time
TTITLE16=Kentucky Mean Paradise
TTITLE17=Leave My Honey Bee Alone
TTITLE18=I'm A Natural Born Gamblin' Man
TTITLE19=Get Along Blues
TTITLE20=A Too Fast Past
TTITLE21=Crazy Boogie
TTITLE22=You Better Try Another Man
TTITLE23=Deck Of Cards
TTITLE24=Wabash Cannonball
TTITLE25=Blues Stay Away From Me
TTITLE26=Philosophy
TTITLE27=I Got A Mean Old Woman
EXTD=Volume 3 of a 5 Volume Box Set\nRecordings 1947-1950
EXTT0=
EXTT1=
EXTT2=
EXTT3=
EXTT4=
EXTT5=
EXTT6=
EXTT7=
EXTT8=
EXTT9=
EXTT10=
EXTT11=
EXTT12=
EXTT13=
EXTT14=
EXTT15=
EXTT16=
EXTT17=
EXTT18=
EXTT19=
EXTT20=
EXTT21=
EXTT22=
EXTT23=
EXTT24=With Kay Starr
EXTT25=
EXTT26=
EXTT27=
PLAYORDER=
